<svg xmlns="http://www.w3.org/2000/svg" xmlns:xlink="http://www.w3.org/1999/xlink" viewBox="0 0 48 48" version="1.1">
<g id="surface1">
<path style=" fill:#546E7A;" d="M 22.320313 15.234375 L 20.0625 19 L 18.0625 17 L 16.0625 19 L 13.804688 15.234375 C 11.558594 16.652344 10.0625 19.148438 10.0625 22 L 12.480469 23 L 14.0625 46 L 22.0625 46 L 23.6875 23 L 26.546875 21.152344 C 25.414063 18.738281 24.425781 16.375 22.320313 15.234375 Z "></path>
<path style=" fill:#E3F2FD;" d="M 18.0625 17 L 20.0625 19 L 22.320313 15.234375 C 21.089844 14.457031 19.632813 14 18.0625 14 C 16.496094 14 15.039063 14.457031 13.804688 15.234375 L 16.0625 19 Z "></path>
<path style=" fill:#E3F2FD;" d="M 23.40625 27 L 12.757813 27 L 12.804688 27.710938 L 13.0625 33 C 13.0625 34.105469 13.960938 35 15.0625 35 L 21.0625 35 C 22.167969 35 23.0625 34.105469 23.0625 33 Z "></path>
<path style=" fill:#BF360C;" d="M 22.0625 14 C 22.0625 14 21.0625 13 18.0625 13 C 15.0625 13 14.0625 14 14.0625 14 L 14.0625 5 L 22.0625 5 Z "></path>
<path style=" fill:#FF9800;" d="M 20.0625 11 L 16.0625 11 L 16.0625 14 C 16.0625 14 15.941406 16 18.023438 16 C 20.105469 16 20.0625 14 20.0625 14 Z "></path>
<path style=" fill:#FFB74D;" d="M 10.0625 22 L 10.0625 30 L 13.0625 32 L 12.480469 23 Z "></path>
<path style=" fill:#FFB74D;" d="M 22.5625 5 C 22.5625 1.183594 13.5625 2.515625 13.5625 5 L 13.5625 8.5 C 13.5625 10.984375 15.578125 13 18.0625 13 C 20.550781 13 22.5625 10.984375 22.5625 8.5 Z "></path>
<path style=" fill:#FFB74D;" d="M 32.046875 19.078125 L 31.046875 18.550781 L 27.117188 22.328125 L 26.527344 21.136719 L 23.671875 22.984375 L 26.046875 25.984375 L 28.046875 25.984375 L 32.046875 21.054688 Z "></path>
<path style=" fill:#FF5722;" d="M 18.0625 1 C 15.027344 1 11.0625 2 11.0625 11 L 14.0625 14 L 14.0625 7.5 L 20.0625 4 L 22.0625 6.5 L 22.0625 14 L 25.0625 11 C 25.0625 8.988281 25.0625 2 20.0625 2 L 19.5625 1 Z "></path>
<path style=" fill:#3F51B5;" d="M 31.0625 9 L 33.0625 9 L 33.0625 36 L 31.0625 36 Z "></path>
<path style=" fill:#FFC107;" d="M 33.0625 35 L 31.0625 35 C 31.0625 35 27.0625 40 27.0625 46 L 37.0625 46 C 37.0625 40 33.0625 35 33.0625 35 Z "></path>
</g>
</svg>